<svg width="61" height="80" viewBox="0 0 61 80" fill="none" xmlns="http://www.w3.org/2000/svg">
<mask id="mask0_7_7815" style="mask-type:alpha" maskUnits="userSpaceOnUse" x="0" y="10" width="61" height="60">
<rect x="0.166687" y="10" width="60" height="60" fill="#D9D9D9"/>
</mask>
<g mask="url(#mask0_7_7815)">
<path d="M52.7292 37.6249V57.4999C52.7292 58.8749 52.2401 60.0524 51.2617 61.0324C50.2817 62.0107 49.1042 62.4999 47.7292 62.4999H12.7292C11.3542 62.4999 10.1776 62.0107 9.19923 61.0324C8.21923 60.0524 7.72923 58.8749 7.72923 57.4999V37.6249C6.7709 36.7499 6.03173 35.6249 5.51173 34.2499C4.99006 32.8749 4.97923 31.3749 5.47923 29.7499L8.10423 21.2499C8.43756 20.1666 9.03173 19.2707 9.88673 18.5624C10.7401 17.8541 11.7292 17.4999 12.8542 17.4999H47.6042C48.7292 17.4999 49.7084 17.8432 50.5417 18.5299C51.3751 19.2182 51.9792 20.1249 52.3542 21.2499L54.9792 29.7499C55.4792 31.3749 55.4692 32.8541 54.9492 34.1874C54.4276 35.5207 53.6876 36.6666 52.7292 37.6249ZM35.7292 34.9999C36.8542 34.9999 37.7084 34.6141 38.2917 33.8424C38.8751 33.0724 39.1042 32.2082 38.9792 31.2499L37.6042 22.4999H32.7292V31.7499C32.7292 32.6249 33.0209 33.3857 33.6042 34.0324C34.1876 34.6774 34.8959 34.9999 35.7292 34.9999ZM24.4792 34.9999C25.4376 34.9999 26.2192 34.6774 26.8242 34.0324C27.4276 33.3857 27.7292 32.6249 27.7292 31.7499V22.4999H22.8542L21.4792 31.2499C21.3126 32.2499 21.5317 33.1249 22.1367 33.8749C22.7401 34.6249 23.5209 34.9999 24.4792 34.9999ZM13.3542 34.9999C14.1042 34.9999 14.7601 34.7291 15.3217 34.1874C15.8851 33.6457 16.2292 32.9582 16.3542 32.1249L17.7292 22.4999H12.8542L10.3542 30.8749C10.1042 31.7082 10.2392 32.6041 10.7592 33.5624C11.2809 34.5207 12.1459 34.9999 13.3542 34.9999ZM47.1042 34.9999C48.3126 34.9999 49.1876 34.5207 49.7292 33.5624C50.2709 32.6041 50.3959 31.7082 50.1042 30.8749L47.4792 22.4999H42.7292L44.1042 32.1249C44.2292 32.9582 44.5734 33.6457 45.1367 34.1874C45.6984 34.7291 46.3542 34.9999 47.1042 34.9999ZM12.7292 57.4999H47.7292V39.8749C47.5209 39.9582 47.3859 39.9999 47.3242 39.9999H47.1042C45.9792 39.9999 44.9892 39.8124 44.1342 39.4374C43.2809 39.0624 42.4376 38.4582 41.6042 37.6249C40.8542 38.3749 40.0001 38.9582 39.0417 39.3749C38.0834 39.7916 37.0626 39.9999 35.9792 39.9999C34.8542 39.9999 33.8017 39.7916 32.8217 39.3749C31.8434 38.9582 30.9792 38.3749 30.2292 37.6249C29.5209 38.3749 28.6984 38.9582 27.7617 39.3749C26.8234 39.7916 25.8126 39.9999 24.7292 39.9999C23.5209 39.9999 22.4267 39.7916 21.4467 39.3749C20.4684 38.9582 19.6042 38.3749 18.8542 37.6249C17.9792 38.4999 17.1151 39.1141 16.2617 39.4674C15.4067 39.8224 14.4376 39.9999 13.3542 39.9999H13.0742C12.9692 39.9999 12.8542 39.9582 12.7292 39.8749V57.4999Z" fill="#F7326E"/>
</g>
</svg>
