<svg width="61" height="80" viewBox="0 0 61 80" fill="none" xmlns="http://www.w3.org/2000/svg">
<mask id="mask0_7_7788" style="mask-type:alpha" maskUnits="userSpaceOnUse" x="0" y="10" width="61" height="60">
<rect x="0.5" y="10" width="60" height="60" fill="#D9D9D9"/>
</mask>
<g mask="url(#mask0_7_7788)">
<path d="M10.5001 62.5001V39.0626L6.00006 42.5001L3.00006 38.5001L10.5001 32.7501V25.0001H15.5001V28.9376L30.5001 17.5001L58.0001 38.5001L55.0001 42.4376L50.5001 39.0626V62.5001H10.5001ZM15.5001 57.5001H28.0001V47.5001H33.0001V57.5001H45.5001V35.2501L30.5001 23.8126L15.5001 35.2501V57.5001ZM10.5001 22.5001C10.5001 20.4168 11.2292 18.646 12.6876 17.1876C14.1459 15.7293 15.9167 15.0001 18.0001 15.0001C18.7084 15.0001 19.3026 14.7601 19.7826 14.2801C20.2609 13.8018 20.5001 13.2085 20.5001 12.5001H25.5001C25.5001 14.5835 24.7709 16.3543 23.3126 17.8126C21.8542 19.271 20.0834 20.0001 18.0001 20.0001C17.2917 20.0001 16.6976 20.2393 16.2176 20.7176C15.7392 21.1976 15.5001 21.7918 15.5001 22.5001H10.5001Z" fill="#1F7FF0"/>
</g>
</svg>
